G04*
G04 #@! TF.GenerationSoftware,Altium Limited,Altium Designer,24.1.2 (44)*
G04*
G04 Layer_Color=8388736*
%FSLAX44Y44*%
%MOMM*%
G71*
G04*
G04 #@! TF.SameCoordinates,872ADF1F-A1A4-4C69-8787-97477F022A4F*
G04*
G04*
G04 #@! TF.FilePolarity,Negative*
G04*
G01*
G75*
%ADD16C,1.6080*%
%ADD17R,1.5932X1.5932*%
%ADD18C,1.5932*%
%ADD19C,1.3532*%
%ADD20R,1.3532X1.3532*%
%ADD21R,1.5900X1.5900*%
%ADD22C,1.5900*%
D16*
X165100Y178200D02*
D03*
Y228200D02*
D03*
Y203200D02*
D03*
D17*
X304800Y25400D02*
D03*
X457200D02*
D03*
D18*
X304800Y50800D02*
D03*
Y76200D02*
D03*
Y101600D02*
D03*
Y127000D02*
D03*
Y152400D02*
D03*
Y177800D02*
D03*
Y203200D02*
D03*
Y228600D02*
D03*
Y254000D02*
D03*
Y279400D02*
D03*
Y304800D02*
D03*
Y330200D02*
D03*
Y355600D02*
D03*
Y381000D02*
D03*
X457200D02*
D03*
Y355600D02*
D03*
Y330200D02*
D03*
Y304800D02*
D03*
Y279400D02*
D03*
Y254000D02*
D03*
Y228600D02*
D03*
Y203200D02*
D03*
Y177800D02*
D03*
Y152400D02*
D03*
Y127000D02*
D03*
Y101600D02*
D03*
Y76200D02*
D03*
Y50800D02*
D03*
D19*
X175135Y76200D02*
D03*
X106930Y330200D02*
D03*
X208530D02*
D03*
D20*
X155065Y76200D02*
D03*
X127000Y330200D02*
D03*
X228600D02*
D03*
D21*
X520700Y292100D02*
D03*
D22*
Y266700D02*
D03*
Y241300D02*
D03*
Y215900D02*
D03*
Y190500D02*
D03*
Y165100D02*
D03*
Y139700D02*
D03*
Y114300D02*
D03*
M02*
