G04*
G04 #@! TF.GenerationSoftware,Altium Limited,Altium Designer,24.1.2 (44)*
G04*
G04 Layer_Physical_Order=2*
G04 Layer_Color=16711680*
%FSLAX44Y44*%
%MOMM*%
G71*
G04*
G04 #@! TF.SameCoordinates,872ADF1F-A1A4-4C69-8787-97477F022A4F*
G04*
G04*
G04 #@! TF.FilePolarity,Positive*
G04*
G01*
G75*
%ADD14C,0.2540*%
%ADD21R,1.5900X1.5900*%
%ADD22C,1.5900*%
%ADD23C,1.5080*%
%ADD24R,1.3900X1.3900*%
%ADD25C,1.3900*%
%ADD26C,1.1500*%
%ADD27R,1.1500X1.1500*%
D14*
X482600Y101600D02*
X495300Y114300D01*
Y241300D01*
X457200Y101600D02*
X482600D01*
X469900Y190500D02*
X482600Y203200D01*
X175135Y76200D02*
X279400D01*
X482600Y203200D02*
Y254000D01*
X520700Y292100D01*
X495300Y241300D02*
X520700Y266700D01*
X304800Y101600D02*
X393700Y190500D01*
X406400Y50800D02*
X457200Y101600D01*
X304800Y50800D02*
X406400D01*
X393700Y190500D02*
X469900D01*
X279400Y76200D02*
X304800Y50800D01*
D21*
X520700Y292100D02*
D03*
D22*
Y266700D02*
D03*
Y241300D02*
D03*
Y215900D02*
D03*
Y190500D02*
D03*
Y165100D02*
D03*
Y139700D02*
D03*
Y114300D02*
D03*
D23*
X165100Y178200D02*
D03*
Y228200D02*
D03*
Y203200D02*
D03*
D24*
X304800Y25400D02*
D03*
X457200D02*
D03*
D25*
X304800Y50800D02*
D03*
Y76200D02*
D03*
Y101600D02*
D03*
Y127000D02*
D03*
Y152400D02*
D03*
Y177800D02*
D03*
Y203200D02*
D03*
Y228600D02*
D03*
Y254000D02*
D03*
Y279400D02*
D03*
Y304800D02*
D03*
Y330200D02*
D03*
Y355600D02*
D03*
Y381000D02*
D03*
X457200D02*
D03*
Y355600D02*
D03*
Y330200D02*
D03*
Y304800D02*
D03*
Y279400D02*
D03*
Y254000D02*
D03*
Y228600D02*
D03*
Y203200D02*
D03*
Y177800D02*
D03*
Y152400D02*
D03*
Y127000D02*
D03*
Y101600D02*
D03*
Y76200D02*
D03*
Y50800D02*
D03*
D26*
X175135Y76200D02*
D03*
X106930Y330200D02*
D03*
X208530D02*
D03*
D27*
X155065Y76200D02*
D03*
X127000Y330200D02*
D03*
X228600D02*
D03*
M02*
