G04*
G04 #@! TF.GenerationSoftware,Altium Limited,Altium Designer,24.1.2 (44)*
G04*
G04 Layer_Physical_Order=1*
G04 Layer_Color=255*
%FSLAX44Y44*%
%MOMM*%
G71*
G04*
G04 #@! TF.SameCoordinates,872ADF1F-A1A4-4C69-8787-97477F022A4F*
G04*
G04*
G04 #@! TF.FilePolarity,Positive*
G04*
G01*
G75*
%ADD14C,0.2540*%
%ADD21R,1.5900X1.5900*%
%ADD22C,1.5900*%
%ADD23C,1.5080*%
%ADD24R,1.3900X1.3900*%
%ADD25C,1.3900*%
%ADD26C,1.1500*%
%ADD27R,1.1500X1.1500*%
D14*
X292100Y165100D02*
X317500D01*
X368300Y241300D02*
X520700D01*
X317500Y165100D02*
X368300Y215900D01*
X520700D01*
X215500Y202800D02*
X228600Y215900D01*
X138900Y227800D02*
X165100D01*
X228600Y215900D02*
Y330200D01*
X165100Y202800D02*
X215500D01*
X127000Y330200D02*
X208530D01*
X155065Y91565D02*
X163830Y100330D01*
X155065Y76200D02*
Y91565D01*
X292100Y203200D02*
X304800D01*
X279400Y190500D02*
X292100Y203200D01*
X279400Y177800D02*
Y190500D01*
X266700Y100330D02*
X279400Y87630D01*
Y177800D02*
X292100Y165100D01*
X163830Y100330D02*
X266700D01*
X279400Y38100D02*
Y87630D01*
Y38100D02*
X292100Y25400D01*
X304800D01*
X457200Y127000D02*
X508000D01*
X520700Y114300D01*
X304800Y177800D02*
X368300Y241300D01*
X114300Y63500D02*
X162435D01*
X125730Y214630D02*
X138900Y227800D01*
X162435Y63500D02*
X175135Y76200D01*
X106930Y70870D02*
X114300Y63500D01*
X125730Y87630D02*
Y214630D01*
X137160Y76200D02*
X155065D01*
X106930Y70870D02*
Y330200D01*
X125730Y87630D02*
X137160Y76200D01*
D21*
X520700Y292100D02*
D03*
D22*
Y266700D02*
D03*
Y241300D02*
D03*
Y215900D02*
D03*
Y190500D02*
D03*
Y165100D02*
D03*
Y139700D02*
D03*
Y114300D02*
D03*
D23*
X165100Y178200D02*
D03*
Y228200D02*
D03*
Y203200D02*
D03*
D24*
X304800Y25400D02*
D03*
X457200D02*
D03*
D25*
X304800Y50800D02*
D03*
Y76200D02*
D03*
Y101600D02*
D03*
Y127000D02*
D03*
Y152400D02*
D03*
Y177800D02*
D03*
Y203200D02*
D03*
Y228600D02*
D03*
Y254000D02*
D03*
Y279400D02*
D03*
Y304800D02*
D03*
Y330200D02*
D03*
Y355600D02*
D03*
Y381000D02*
D03*
X457200D02*
D03*
Y355600D02*
D03*
Y330200D02*
D03*
Y304800D02*
D03*
Y279400D02*
D03*
Y254000D02*
D03*
Y228600D02*
D03*
Y203200D02*
D03*
Y177800D02*
D03*
Y152400D02*
D03*
Y127000D02*
D03*
Y101600D02*
D03*
Y76200D02*
D03*
Y50800D02*
D03*
D26*
X175135Y76200D02*
D03*
X106930Y330200D02*
D03*
X208530D02*
D03*
D27*
X155065Y76200D02*
D03*
X127000Y330200D02*
D03*
X228600D02*
D03*
M02*
