M48
;Layer_Color=9474304
;FILE_FORMAT=4:4
METRIC,LZ
;TYPE=PLATED
T01F00S00C0.8000
T02F00S00C1.0000
T03F00S00C1.0400
%
T01
X00155065Y000762
X00175135
X0020853Y003302
X002286
X00127
X0010693
T02
X001651Y001778
Y002028
Y002278
T03
X003048Y000254
Y000508
Y000762
Y001016
Y00127
Y001524
Y001778
Y002032
Y002286
Y00254
Y002794
Y003048
Y003302
Y003556
Y00381
X004572
Y003556
Y003302
Y003048
Y002794
Y00254
Y002286
Y002032
Y001778
Y001524
Y00127
Y001016
Y000762
Y000508
Y000254
X005207Y001143
Y001397
Y001651
Y001905
Y002159
Y002413
Y002667
Y002921
M30
